<svg width="570" height="120" viewBox="0 0 570 120" fill="none" xmlns="http://www.w3.org/2000/svg">
<g clip-path="url(#clip0_423_229)">
<path d="M0 20.0762H17.3513V39.7721H0V20.0762ZM0 54.8301H17.3513V77.7866H0V54.8301ZM17.3513 77.7866H41.1734C48.9528 77.7866 52.968 72.0259 52.968 66.2509C52.968 60.476 49.0783 54.8301 41.1734 54.8301H17.3513V39.7721H38.2947C45.185 39.7721 48.5764 34.8795 48.5764 29.8614C48.5764 24.8433 45.185 20.0726 38.2947 20.0726H17.3513V5.01465H37.9147C57.8543 5.01465 65.2465 17.1887 65.2465 28.7315C65.2465 34.8759 62.2459 42.9071 52.5844 46.1712V46.4223C66.5013 49.9375 69.6345 59.095 69.6345 67.3772C69.6345 80.423 61.8659 92.8445 36.6564 92.8445H17.3477V77.7866H17.3513Z" fill="#252968"/>
<path d="M104.125 55.3287H118.544V67.2517H104.125C96.8441 67.2517 94.2092 70.7669 94.2092 74.2821C94.2092 77.7973 96.8441 81.3018 104.125 81.3018C114.776 81.3018 118.544 77.5427 118.544 69.8917V67.2553H133.594V92.8481H118.544V84.5731H118.289C116.411 89.9678 109.141 94.8497 100.114 94.8497C88.0753 94.8497 78.6611 88.0883 78.6611 75.5304C78.6611 62.108 89.6993 55.3323 104.125 55.3323V55.3287ZM107.384 39.3919C101.361 39.3919 96.102 42.1539 96.102 47.7997H81.0523C82.0525 31.2388 94.5928 25.5894 107.384 25.5894C120.175 25.5894 133.594 28.7315 133.594 47.4195V67.2481H118.544V47.7961C118.544 42.1503 113.274 39.3883 107.384 39.3883V39.3919Z" fill="#252968"/>
<path d="M143.237 60.0957C143.237 38.8933 157.165 25.5894 175.595 25.5894C192.025 25.5894 203.684 35.127 206.695 51.0638H191.143C188.508 42.656 183.618 39.3919 175.592 39.3919C165.934 39.3919 158.785 47.5486 158.785 60.0957C158.785 72.6429 165.934 81.0543 175.592 81.0543C183.873 81.0543 188.508 77.7866 191.143 69.2532H206.695C203.684 85.19 192.022 94.8461 175.595 94.8461C157.165 94.8461 143.237 81.4309 143.237 60.0957Z" fill="#252968"/>
<path d="M215.296 62.9832V0H230.346V62.9832H215.296ZM215.296 62.9832H230.346V92.8445H215.296V62.9832ZM230.346 49.6792H243.628V62.9796H230.346V49.6792ZM255.548 27.6051H272.598L259.936 49.6828H243.632L255.548 27.6051ZM259.936 62.9832L274.064 92.7225H258.057L243.632 62.9832H259.936Z" fill="#252968"/>
<path d="M305.669 81.8003C312.183 81.8003 317.331 79.4185 317.331 74.7806C317.331 70.7668 311.308 68.8873 304.16 66.7495C293.254 63.4818 279.578 59.3424 279.578 45.2888C279.578 35.2525 288.737 25.5857 304.293 25.5857C319.848 25.5857 327.993 32.6161 329.993 46.9172H315.32C315.32 41.3969 310.308 38.7641 304.662 38.7641C299.65 38.7641 295.137 40.6437 295.137 44.5319C295.137 49.1734 301.661 51.3112 309.308 53.6894C319.833 56.9535 332.252 61.0964 332.252 73.8982C332.252 86.7 322.346 94.8424 305.418 94.8424C289.996 94.8424 278.323 86.4454 277.448 70.8852H292.122C292.122 79.415 298.908 81.7967 305.676 81.7967L305.669 81.8003Z" fill="#252968"/>
<path d="M341.479 14.1757L356.529 9.16113V27.6052H341.479V14.1757ZM341.479 41.4006H356.529V72.3918C356.529 79.7988 360.921 81.4345 365.933 81.4345C367.944 81.4345 370.066 81.1798 372.081 80.9323V93.8453C369.069 94.3475 365.556 94.846 362.043 94.846C351.894 94.846 341.479 91.2197 341.479 76.1617V41.4006ZM356.529 27.6052H372.081V41.4006H356.529V27.6052Z" fill="#252968"/>
<path d="M405.296 55.3287H421.066V67.2517H405.296C398.015 67.2517 395.38 70.7669 395.38 74.2821C395.38 77.7973 398.015 81.3018 405.296 81.3018C415.947 81.3018 419.715 77.5427 419.715 69.8917V67.2553H434.765V92.8481H419.715V84.5731H419.46C417.582 89.9678 410.311 94.8497 401.285 94.8497C389.246 94.8497 379.832 88.0883 379.832 75.5304C379.832 62.108 390.87 55.3323 405.296 55.3323V55.3287ZM408.551 39.3919C402.528 39.3919 397.269 42.1539 397.269 47.7997H382.22C383.22 31.2388 395.76 25.5894 408.551 25.5894C421.342 25.5894 434.761 28.7315 434.761 47.4195V67.2481H419.711V47.7961C419.711 42.1503 414.441 39.3883 408.551 39.3883V39.3919Z" fill="#252968"/>
<path d="M439.177 101.751C439.177 97.615 440.565 93.8451 444.322 91.0868H457.36C455.604 92.3422 454.725 94.3473 454.725 96.4815C454.725 100.997 458.995 106.023 469.897 106.023C478.935 106.023 487.582 103.889 487.582 97.2384C487.582 93.8451 485.201 91.0868 481.433 91.0868H470.517V77.9191L457.357 77.9048V68.1303C448.584 63.9874 444.318 56.0818 444.318 48.1798C444.318 37.0136 453.098 25.5928 471.274 25.5928C475.665 25.5928 479.433 26.3496 482.688 27.605H501.871V40.1522H495.35C496.361 42.7886 496.863 45.4178 496.863 48.1833C496.863 59.4715 488.46 70.8923 471.277 70.8923H470.532V77.9227H488.206C498.122 77.9227 503.011 84.3182 503.011 94.6056C503.011 109.409 491.597 119.194 468.897 119.194C449.212 119.194 439.174 111.288 439.174 101.754L439.177 101.751ZM470.912 57.5883C478.182 57.5883 481.817 52.9468 481.817 48.1798C481.817 43.4127 478.182 38.8932 470.912 38.8932C463.132 38.8932 459.375 43.4091 459.375 48.1798C459.375 52.9504 463.132 57.5883 470.912 57.5883Z" fill="#252968"/>
<path d="M522.851 66.2508C524.729 75.5266 530.878 81.0541 538.901 81.0541C545.802 81.0541 550.183 78.7979 552.95 73.0229H569.122C564.989 86.6928 553.951 94.8459 538.901 94.8459C522.349 94.8459 509.432 84.0671 506.923 66.2508H522.851ZM538.901 25.5928C555.331 25.5928 570 35.0085 570 59.4679V66.2508H522.847V53.6965H554.449C552.814 42.6595 546.924 39.3953 538.897 39.3953C530.87 39.3953 524.858 44.7937 522.847 53.6965H507.052C509.554 36.2568 522.471 25.5928 538.897 25.5928H538.901Z" fill="#252968"/>
</g>
<defs>
<clipPath id="clip0_423_229">
<rect width="570" height="119.191" fill="white"/>
</clipPath>
</defs>
</svg>
